<mxfile host="app.diagrams.net" agent="Mozilla/5.0 (Windows NT 10.0; Win64; x64; rv:128.0) Gecko/20100101 Firefox/128.0" version="27.1.6">
  <diagram name="Page-1" id="h_SF1EkG4wxF9Oy3_s2Z">
    <mxGraphModel dx="1256" dy="702" grid="1" gridSize="10" guides="1" tooltips="1" connect="1" arrows="1" fold="1" page="1" pageScale="1" pageWidth="850" pageHeight="1100" math="0" shadow="0">
      <root>
        <mxCell id="0" />
        <mxCell id="1" parent="0" />
        <mxCell id="WyPI02Etzvb157_SmrOK-5" value="" style="edgeStyle=orthogonalEdgeStyle;rounded=0;orthogonalLoop=1;jettySize=auto;html=1;" parent="1" source="WyPI02Etzvb157_SmrOK-1" target="WyPI02Etzvb157_SmrOK-4" edge="1">
          <mxGeometry relative="1" as="geometry" />
        </mxCell>
        <mxCell id="WyPI02Etzvb157_SmrOK-1" value="&lt;div&gt;user&lt;/div&gt;" style="rounded=0;whiteSpace=wrap;html=1;" parent="1" vertex="1">
          <mxGeometry x="80" y="430" width="120" height="60" as="geometry" />
        </mxCell>
        <mxCell id="WyPI02Etzvb157_SmrOK-7" value="" style="edgeStyle=orthogonalEdgeStyle;rounded=0;orthogonalLoop=1;jettySize=auto;html=1;" parent="1" source="WyPI02Etzvb157_SmrOK-4" target="WyPI02Etzvb157_SmrOK-6" edge="1">
          <mxGeometry relative="1" as="geometry" />
        </mxCell>
        <mxCell id="WyPI02Etzvb157_SmrOK-4" value="participating in a workshop" style="whiteSpace=wrap;html=1;rounded=0;" parent="1" vertex="1">
          <mxGeometry x="280" y="430" width="120" height="60" as="geometry" />
        </mxCell>
        <mxCell id="WyPI02Etzvb157_SmrOK-9" value="" style="edgeStyle=orthogonalEdgeStyle;rounded=0;orthogonalLoop=1;jettySize=auto;html=1;" parent="1" source="WyPI02Etzvb157_SmrOK-6" target="WyPI02Etzvb157_SmrOK-8" edge="1">
          <mxGeometry relative="1" as="geometry" />
        </mxCell>
        <mxCell id="WyPI02Etzvb157_SmrOK-14" value="" style="edgeStyle=orthogonalEdgeStyle;rounded=0;orthogonalLoop=1;jettySize=auto;html=1;" parent="1" source="WyPI02Etzvb157_SmrOK-6" target="WyPI02Etzvb157_SmrOK-13" edge="1">
          <mxGeometry relative="1" as="geometry" />
        </mxCell>
        <mxCell id="WyPI02Etzvb157_SmrOK-6" value="that workshop has participants" style="whiteSpace=wrap;html=1;rounded=0;" parent="1" vertex="1">
          <mxGeometry x="500" y="430" width="120" height="60" as="geometry" />
        </mxCell>
        <mxCell id="WyPI02Etzvb157_SmrOK-11" value="" style="edgeStyle=orthogonalEdgeStyle;rounded=0;orthogonalLoop=1;jettySize=auto;html=1;" parent="1" source="WyPI02Etzvb157_SmrOK-8" target="WyPI02Etzvb157_SmrOK-10" edge="1">
          <mxGeometry relative="1" as="geometry" />
        </mxCell>
        <mxCell id="WyPI02Etzvb157_SmrOK-8" value="check for all participants with the email of the user" style="whiteSpace=wrap;html=1;rounded=0;" parent="1" vertex="1">
          <mxGeometry x="495" y="540" width="130" height="80" as="geometry" />
        </mxCell>
        <mxCell id="WyPI02Etzvb157_SmrOK-10" value="list them separately to confirm participation, payment, etc." style="whiteSpace=wrap;html=1;rounded=0;" parent="1" vertex="1">
          <mxGeometry x="485" y="670" width="150" height="80" as="geometry" />
        </mxCell>
        <mxCell id="WyPI02Etzvb157_SmrOK-13" value="Each unique workshop has unique participants, no global participant store" style="whiteSpace=wrap;html=1;rounded=0;" parent="1" vertex="1">
          <mxGeometry x="470" y="340" width="180" height="70" as="geometry" />
        </mxCell>
        <mxCell id="CXA_Ict4p7-NS5n9pAAg-3" value="" style="edgeStyle=orthogonalEdgeStyle;rounded=0;orthogonalLoop=1;jettySize=auto;html=1;" edge="1" parent="1" source="CXA_Ict4p7-NS5n9pAAg-1" target="CXA_Ict4p7-NS5n9pAAg-2">
          <mxGeometry relative="1" as="geometry" />
        </mxCell>
        <mxCell id="CXA_Ict4p7-NS5n9pAAg-4" value="if cookies present and valid" style="edgeLabel;html=1;align=center;verticalAlign=middle;resizable=0;points=[];" vertex="1" connectable="0" parent="CXA_Ict4p7-NS5n9pAAg-3">
          <mxGeometry x="-0.025" y="-2" relative="1" as="geometry">
            <mxPoint as="offset" />
          </mxGeometry>
        </mxCell>
        <mxCell id="CXA_Ict4p7-NS5n9pAAg-6" value="" style="edgeStyle=orthogonalEdgeStyle;rounded=0;orthogonalLoop=1;jettySize=auto;html=1;" edge="1" parent="1" source="CXA_Ict4p7-NS5n9pAAg-1" target="CXA_Ict4p7-NS5n9pAAg-5">
          <mxGeometry relative="1" as="geometry">
            <Array as="points">
              <mxPoint x="232.5" y="90" />
              <mxPoint x="232.5" y="200" />
            </Array>
          </mxGeometry>
        </mxCell>
        <mxCell id="CXA_Ict4p7-NS5n9pAAg-7" value="If not" style="edgeLabel;html=1;align=center;verticalAlign=middle;resizable=0;points=[];" vertex="1" connectable="0" parent="CXA_Ict4p7-NS5n9pAAg-6">
          <mxGeometry x="0.281" y="-2" relative="1" as="geometry">
            <mxPoint as="offset" />
          </mxGeometry>
        </mxCell>
        <mxCell id="CXA_Ict4p7-NS5n9pAAg-1" value="invite recieved" style="rounded=0;whiteSpace=wrap;html=1;" vertex="1" parent="1">
          <mxGeometry x="97.5" y="60" width="120" height="60" as="geometry" />
        </mxCell>
        <mxCell id="CXA_Ict4p7-NS5n9pAAg-2" value="&lt;div&gt;list all details and hide the form (indicate the session situation)&lt;br&gt;&lt;/div&gt;" style="rounded=0;whiteSpace=wrap;html=1;" vertex="1" parent="1">
          <mxGeometry x="520" y="45" width="177.5" height="90" as="geometry" />
        </mxCell>
        <mxCell id="CXA_Ict4p7-NS5n9pAAg-5" value="list most basic details and offer a login form (email verification)" style="whiteSpace=wrap;html=1;rounded=0;" vertex="1" parent="1">
          <mxGeometry x="528.75" y="170" width="160" height="80" as="geometry" />
        </mxCell>
      </root>
    </mxGraphModel>
  </diagram>
</mxfile>
